<svg width="87" height="67" viewBox="0 0 87 67" fill="none" xmlns="http://www.w3.org/2000/svg">
<path fill-rule="evenodd" clip-rule="evenodd" d="M84.5651 17.0266C79.9836 2.31088 50.9862 -7.27953 23.8324 7.09235C19.6118 9.32423 17.0138 11.5182 19.4811 10.2133C46.1028 -3.87484 73.3155 2.02454 79.8202 16.7024C73.7731 5.06967 54.706 0.415023 35.1787 6.35362C33.1221 6.98121 31.1347 7.70425 29.231 8.50574C9.63309 15.9336 -3.38292 31.6417 0.774883 45.0042C5.36677 59.7539 28.1484 66.3149 50.2671 59.5866C53.545 58.5877 56.1286 57.0814 54.2772 57.645C36.5137 63.0475 18.2468 59.5696 9.90244 50.6669C18.2429 58.4138 34.2583 60.8627 50.5953 55.8929C52.9135 55.1856 55.1414 54.3592 57.2687 53.4296C59.613 52.5261 60.9009 51.9012 63.0138 50.778C62.7967 50.3387 62.683 49.8445 62.7013 49.3228C62.7667 47.6531 64.184 46.3561 65.8667 46.4215C66.8316 46.4581 67.6724 46.934 68.2084 47.6466C80.317 39.4199 87.7697 27.3218 84.5651 17.0266Z" fill="white"/>
<path fill-rule="evenodd" clip-rule="evenodd" d="M5.43862 49.5095C5.03592 49.4912 4.63975 49.354 4.32464 49.1108C3.83564 48.7355 3.57938 48.1602 3.64083 47.5679L5.46608 29.8358L14.4603 20.5618C16.1822 20.1304 17.7146 19.9408 19.0116 19.9891C20.5152 20.048 21.7639 20.4298 22.7236 21.124C23.1694 21.4457 23.7905 22.0197 24.218 22.9245L24.622 23.7887L25.2418 23.0591C27.1507 20.7972 29.6951 19.2099 32.5912 18.4685C33.7261 18.1796 34.7969 18.0501 35.7762 18.0881C37.2419 18.1456 38.4971 18.5679 39.5012 19.3472C39.9785 19.7133 40.3968 20.1617 40.7486 20.6769L41.2977 21.4849L41.7854 20.6403C43.7636 17.2199 46.9238 14.805 50.6815 13.8466C51.8164 13.5537 52.8925 13.4282 53.8692 13.4635C55.3335 13.5223 56.5861 13.9433 57.5929 14.72C57.7236 14.8233 57.8518 14.9357 57.9786 15.0508L58.4754 15.5136L58.886 14.9749C60.8708 12.3626 64.0806 10.7975 66.4184 10.1974L66.6551 10.1346C66.8394 10.0849 67.0695 10.0222 67.3127 9.97512L84.4329 5.59766C84.6121 5.54928 84.8017 5.53229 84.9952 5.54144C85.4266 5.55451 85.8372 5.7088 86.1562 5.96506C86.6504 6.36515 86.8858 6.96398 86.7903 7.56935C86.2177 11.1427 83.1568 11.9533 82.5515 12.0828L80.1392 12.6999L78.429 29.7561C78.3584 30.4804 77.8027 31.0988 77.0535 31.2897L72.1426 32.5462C71.9622 32.5933 71.7726 32.6129 71.5817 32.6025C71.1672 32.5881 70.7697 32.4495 70.4559 32.2063C70.2859 32.0768 70.1408 31.9186 70.0271 31.7369L69.6113 31.0766L69.0674 31.6362C67.2552 33.502 64.6232 34.9768 61.854 35.6855C60.7387 35.9718 59.5763 36.1078 58.4074 36.0856C58.3133 36.0856 58.2231 36.083 58.1316 36.0778C57.3758 36.0503 56.6371 35.9535 55.9925 35.8006L55.8252 35.7626C55.7193 35.7352 55.6042 35.696 55.5009 35.6489L55.1387 35.4881L54.8406 35.7522C53.1527 37.2623 51.1535 38.3175 48.9033 38.8941C47.826 39.1673 46.8166 39.2994 45.8948 39.2837C45.8294 39.2824 45.768 39.2811 45.7105 39.2785C44.2552 39.2236 43.0053 38.7986 41.9946 38.0194C41.5187 37.6507 41.0977 37.2022 40.7473 36.6857L40.1955 35.8829L39.7104 36.7236C37.7296 40.144 34.5681 42.5563 30.813 43.516C29.7343 43.7932 28.7223 43.9253 27.8045 43.9096C27.7339 43.9057 27.6659 43.9057 27.6031 43.9017C26.157 43.8468 24.9123 43.4245 23.9042 42.6426C23.6532 42.4504 23.4152 42.2282 23.1917 41.9889L22.7053 41.4528L22.2581 42.0229C20.1988 44.6588 16.6921 46.7168 12.384 47.819L6.00999 49.4481C5.8361 49.4912 5.65959 49.5122 5.48438 49.5109L5.43862 49.5095Z" fill="white"/>
<path fill-rule="evenodd" clip-rule="evenodd" d="M16.5593 38.0298C16.2298 41.0318 14.8779 42.6806 12.1753 43.3696L11.2339 43.6115L12.1531 34.5611L13.3259 34.263C14.3889 33.9923 15.2034 34.0564 15.7434 34.463C16.4848 35.0161 16.758 36.2151 16.5593 38.0298ZM7.62524 26.8678L5.52672 47.3522L11.9007 45.7218C17.9831 44.1672 21.9344 40.7651 22.4639 36.6204C22.6561 35.0501 22.2834 33.774 21.3787 32.9359C20.5746 32.188 19.3625 31.7997 17.8445 31.8036C20.2908 30.4634 22.6142 28.1139 22.8378 25.4231C22.9542 23.9169 22.5358 22.8107 21.5944 22.1334C20.2686 21.1764 17.9923 21.1005 14.8229 21.9099L7.87104 23.7417C4.41798 24.6242 3.94336 26.9306 3.94336 26.9306L14.3222 24.228C15.4453 23.9391 16.2729 23.9927 16.7789 24.3758C17.3333 24.7968 17.5347 25.6388 17.3778 26.8783C16.9123 30.721 15.0047 31.7082 13.2056 32.1697L12.3479 32.3881L13.1951 25.4636L7.62524 26.8678Z" fill="#595959"/>
<path fill-rule="evenodd" clip-rule="evenodd" d="M34.6869 29.726C34.037 35.9418 32.9296 38.5816 30.7226 39.1478C30.0989 39.306 29.653 39.2641 29.3209 39.0196C28.424 38.3502 28.258 36.1654 28.7456 31.4754C29.3288 25.8755 30.1342 22.7153 32.7113 22.0576C33.3349 21.8981 33.7821 21.9386 34.1116 22.1858C35.0085 22.8526 35.1732 25.0413 34.6869 29.726ZM38.3243 20.3174C37.1175 19.3838 35.3615 19.206 33.1022 19.7826C27.8618 21.1241 24.2283 25.5643 23.3863 31.6559C22.7247 36.389 23.3078 39.4955 25.1108 40.888C26.315 41.8203 28.071 41.9968 30.3303 41.4202C35.5733 40.0813 39.2055 35.6411 40.0502 29.5443C40.7039 24.8151 40.126 21.7111 38.3243 20.3174Z" fill="#595959"/>
<path fill-rule="evenodd" clip-rule="evenodd" d="M52.7768 25.1031C52.1283 31.3202 51.017 33.9613 48.8126 34.5222C48.1876 34.683 47.7443 34.6425 47.4109 34.3954C46.514 33.7273 46.3466 31.5412 46.8383 26.8512C47.4214 21.2526 48.2242 18.0924 50.7999 17.4308C51.4249 17.2739 51.8708 17.3144 52.2015 17.5615C53.0985 18.2283 53.2645 20.4145 52.7768 25.1031ZM56.4103 15.6931C55.2075 14.7622 53.4515 14.5844 51.1922 15.1597C45.9505 16.4998 42.3196 20.9374 41.4776 27.0343C40.8186 31.7673 41.4017 34.87 43.1995 36.2638C44.4063 37.1947 46.161 37.3738 48.419 36.7959C53.6633 35.4584 57.2968 31.0182 58.1388 24.9253C58.7952 20.1909 58.2147 17.0856 56.4103 15.6931Z" fill="#595959"/>
<path fill-rule="evenodd" clip-rule="evenodd" d="M84.9464 6.91016L67.753 11.3046C67.4876 11.3543 67.2208 11.4406 66.9267 11.5138C63.4658 12.3977 59.6244 15.2153 59.1824 18.3977C58.9144 20.2073 59.729 21.9475 61.4078 23.1779L63.3533 24.5847C65.0308 25.7863 65.5002 26.5434 65.3577 27.8351C65.2086 29.2002 63.9103 30.4985 62.272 30.9156C61.2692 31.1705 59.7433 31.3026 58.1678 30.471L58.0959 30.4318C57.6252 31.6164 57.029 32.6977 56.3125 33.66L56.4655 33.6979C57.5625 33.9555 59.3955 34.0941 61.3725 33.5881C65.9251 32.427 69.5704 29.089 69.8554 25.8308C70.0411 23.8552 69.1847 22.23 67.3071 21.0022L65.3851 19.7222C63.9587 18.7874 63.4448 17.91 63.6109 16.6954C63.7678 15.4415 64.9184 14.3615 66.5253 13.951C66.5802 13.934 73.5674 12.1584 73.5674 12.1584L71.6611 30.4488L76.5707 29.1949L78.4064 10.9215L82.1301 9.96836C82.1301 9.96836 84.5163 9.59181 84.9464 6.91016Z" fill="#595959"/>
<path fill-rule="evenodd" clip-rule="evenodd" d="M11.651 32.4607L12.4211 26.2188C12.3165 26.2514 12.2184 26.2854 12.1191 26.3168L11.3516 32.5378L11.651 32.4607Z" fill="white"/>
<path fill-rule="evenodd" clip-rule="evenodd" d="M21.8786 25.3493C21.6825 27.6937 19.648 29.698 17.6802 30.88C17.5469 30.9598 17.5508 31.3272 17.5508 31.3272C19.6323 30.1831 21.9335 28.0715 22.1401 25.5703C22.2368 24.3413 21.9348 23.4914 21.2183 22.975C21.2144 22.971 21.2144 22.971 21.2144 22.9697C21.7426 23.4966 21.9596 24.2772 21.8786 25.3493Z" fill="white"/>
<path fill-rule="evenodd" clip-rule="evenodd" d="M11.5119 34.1522L13.2129 33.7142C13.7634 33.5769 14.2707 33.5128 14.7179 33.5298C15.3298 33.5547 15.8475 33.7233 16.2698 34.0306C16.194 33.9561 16.1182 33.8881 16.0345 33.8227C15.607 33.5063 15.0774 33.3324 14.4577 33.3076C14.0079 33.2919 13.4993 33.3533 12.9501 33.4932L11.2465 33.9273L10.2842 43.6249L10.5757 43.5504L11.5119 34.1522Z" fill="white"/>
<path fill-rule="evenodd" clip-rule="evenodd" d="M20.9284 33.7174C20.8565 33.6494 20.7794 33.5828 20.6957 33.5239C21.5665 34.362 21.6201 35.6081 21.5076 36.5115C21.0199 40.3215 17.2871 43.4791 11.5263 44.9527L6.53431 46.2301L6.50293 46.5256L11.7904 45.1762C17.5525 43.7014 21.2814 40.5425 21.7691 36.7325C21.8855 35.8212 21.8306 34.5516 20.9284 33.7174Z" fill="white"/>
<path fill-rule="evenodd" clip-rule="evenodd" d="M15.8292 23.4731C16.4031 23.4966 16.8895 23.6483 17.2752 23.9268C17.2085 23.8614 17.1445 23.7986 17.0713 23.7424C16.6751 23.4417 16.1691 23.2743 15.565 23.2534C15.0957 23.2351 14.5504 23.3031 13.949 23.4574L5.82689 25.5493C5.58631 25.6945 5.50917 25.8213 5.33789 25.973L14.2131 23.6783C14.8132 23.524 15.3598 23.4548 15.8292 23.4731Z" fill="white"/>
<path fill-rule="evenodd" clip-rule="evenodd" d="M37.9271 21.1448C37.9088 21.1344 37.8918 21.1213 37.8735 21.1069C39.249 22.4 39.6713 25.2621 39.0934 29.4265C38.2945 35.1938 34.8807 39.3908 29.9554 40.6525C29.065 40.8761 28.2609 40.9794 27.5575 40.9519C26.7128 40.9179 26.0107 40.697 25.4629 40.2943C25.5296 40.357 25.6002 40.4224 25.6708 40.4799C26.2265 40.9075 26.9495 41.1389 27.8203 41.1729C28.5224 41.203 29.3291 41.101 30.2182 40.8709C35.1448 39.6118 38.56 35.4174 39.3562 29.6461C39.9642 25.2778 39.4687 22.3347 37.9271 21.1448Z" fill="white"/>
<path fill-rule="evenodd" clip-rule="evenodd" d="M28.6728 39.6312C28.6845 39.639 28.6924 39.6469 28.7055 39.6508C27.7118 38.6519 27.5457 36.4474 28.0517 31.6045C28.6702 25.6515 29.5775 22.2808 32.5991 21.5094C32.9495 21.4192 33.2607 21.38 33.5523 21.3931C33.9615 21.4074 34.3237 21.529 34.631 21.7487C34.5564 21.6742 34.4819 21.6062 34.3969 21.5447C34.0858 21.312 33.7118 21.1852 33.2869 21.1695C33.0018 21.1577 32.6907 21.1982 32.3363 21.2845C29.316 22.0599 28.406 25.4293 27.7863 31.3809C27.2437 36.5834 27.4751 38.7408 28.6728 39.6312Z" fill="white"/>
<path fill-rule="evenodd" clip-rule="evenodd" d="M46.7645 35.0094C46.7723 35.0146 46.7841 35.0211 46.7932 35.029C45.8022 34.0274 45.6335 31.8256 46.1434 26.9814C46.6638 21.9593 47.3659 17.7322 50.6908 16.885C51.0412 16.7948 51.3537 16.7556 51.6401 16.7673C52.0506 16.7843 52.4154 16.9059 52.7214 17.1256C52.6481 17.051 52.5697 16.9831 52.4886 16.9203C52.1748 16.6876 51.8009 16.5607 51.3773 16.5451C51.0896 16.5333 50.7811 16.5712 50.4254 16.664C47.1044 17.5126 46.4023 21.7371 45.878 26.7591C45.3341 31.959 45.5655 34.1203 46.7645 35.0094Z" fill="white"/>
<path fill-rule="evenodd" clip-rule="evenodd" d="M56.018 16.5211C55.9997 16.5068 55.9827 16.4963 55.9631 16.4858C57.3398 17.7763 57.7622 20.6384 57.1803 24.8028C56.388 30.5714 52.9702 34.7671 48.0462 36.0249C47.1571 36.2524 46.3491 36.3531 45.647 36.3269C44.805 36.2942 44.1002 36.0733 43.5537 35.668C43.6204 35.7346 43.691 35.7987 43.7629 35.8549C44.3186 36.2825 45.0403 36.5152 45.9098 36.5492C46.6119 36.5767 47.4199 36.4734 48.3077 36.2472C53.2343 34.9881 56.6508 30.7936 57.4457 25.0237C58.0537 20.6554 57.5621 17.7149 56.018 16.5211Z" fill="white"/>
<path fill-rule="evenodd" clip-rule="evenodd" d="M83.2296 8.38861C82.6033 9.04889 81.8384 9.18356 81.8267 9.18618L81.7888 9.19141L77.5015 10.2871L75.6684 28.5592L72.6677 29.3267L72.6416 29.6222L75.9299 28.7801L77.7656 10.508L82.0542 9.41368L82.0895 9.40714C82.1052 9.40453 83.1342 9.22671 83.7879 8.24609L83.2296 8.38861Z" fill="white"/>
<path fill-rule="evenodd" clip-rule="evenodd" d="M74.2811 11.1113C74.2811 11.1113 66.2152 13.1628 66.1512 13.1772C64.2279 13.6701 62.855 15.0063 62.655 16.5845C62.4353 18.1665 63.2329 19.189 64.1494 19.9159C63.3518 19.206 62.719 18.2345 62.9178 16.8067C63.1191 15.2286 64.4881 13.8937 66.4153 13.402C66.4702 13.3864 72.805 11.7755 74.2497 11.4081L74.2811 11.1113Z" fill="white"/>
<path fill-rule="evenodd" clip-rule="evenodd" d="M67.4935 22.2476C68.567 23.2125 69.0272 24.3605 68.8964 25.7438C68.6441 28.6451 65.1753 31.7504 60.9953 32.8199C60.0605 33.0578 59.0485 33.1651 58.0679 33.1258C57.9842 33.1258 57.9083 33.1206 57.8299 33.1167C57.7894 33.1781 57.7554 33.2435 57.7188 33.3076C57.9044 33.3246 58.111 33.3416 58.332 33.3507C59.31 33.3899 60.3206 33.2814 61.2607 33.0408C65.4381 31.9726 68.9056 28.8674 69.1579 25.97C69.2991 24.4755 68.7539 23.2543 67.4935 22.2476Z" fill="white"/>
<path fill-rule="evenodd" clip-rule="evenodd" d="M74.9031 45.6466C74.5252 45.9291 74.2938 46.0677 73.8297 46.4181C73.5995 46.592 73.359 46.775 73.1105 46.9646C72.8556 47.145 72.5915 47.3333 72.3195 47.5242C71.7769 47.9086 71.2173 48.3231 70.6119 48.7258C70.0105 49.1337 69.392 49.556 68.7501 49.9666C68.1094 50.385 67.4923 50.8243 66.8071 51.2126C66.4685 51.4127 66.1312 51.6153 65.7978 51.8154C65.4539 52.0076 65.1166 52.2011 64.7766 52.3907C64.1059 52.7751 63.4299 53.1411 62.7827 53.4955C62.125 53.842 61.4883 54.178 60.8869 54.497C60.2736 54.799 59.7062 55.1063 59.1662 55.3691C58.5308 55.6881 57.7371 56.0725 57.7371 56.0725C56.7552 56.4465 56.6715 56.891 57.9071 56.5014C58.3817 56.3549 58.9243 56.1863 59.4996 55.9732C60.0814 55.7718 60.6973 55.5325 61.3484 55.271C61.9943 55.0004 62.6794 54.7127 63.3645 54.3885C64.3334 53.9113 64.0117 54.5558 63.7986 55.1063C63.7267 55.2933 63.6273 55.4698 63.5162 55.6541L63.2116 56.202L62.8755 56.7485C62.767 56.9302 62.6467 57.1146 62.5238 57.295C62.3957 57.4742 62.2885 57.6624 62.1577 57.8416L61.7707 58.3842C61.5105 58.7476 61.2412 59.1098 60.964 59.4707C60.6881 59.8329 60.4044 60.1937 60.1194 60.5572L59.2342 61.6411C58.6929 62.1798 58.7975 62.4805 59.6578 61.8673C60.0919 61.5679 60.5077 61.2567 60.9078 60.9377C61.3131 60.6187 61.7145 60.2996 62.0897 59.9597C62.4768 59.6276 62.8298 59.2785 63.1946 58.932C63.5424 58.5777 64.3138 57.72 64.6302 57.3499C64.5387 58.375 64.3726 59.4027 64.1203 60.4265C63.847 61.53 63.4744 62.6256 62.9566 63.7187C62.835 63.9907 62.6886 64.2574 62.55 64.5307C62.4022 64.8052 62.2479 65.0746 62.0767 65.3439C61.7367 65.8944 61.7328 66.3807 62.2283 65.8983C62.4885 65.6433 62.733 65.3779 62.9736 65.1059C63.2116 64.8353 63.4338 64.5633 63.6391 64.2783C63.8562 63.9998 64.034 63.7096 64.2249 63.4232C64.4027 63.1329 64.57 62.8401 64.7243 62.5459C64.8904 62.253 65.0172 61.9549 65.1506 61.6555C65.2813 61.3587 65.4068 61.058 65.5062 60.7586C65.7193 60.1545 65.8841 59.5517 66.0109 58.9464C66.075 58.6483 66.1233 58.3462 66.1612 58.0429C66.207 57.7435 66.2436 57.4441 66.2593 57.1421C66.3011 56.5458 66.5901 54.854 67.861 52.558C68.2179 51.9186 68.9684 51.2937 69.5372 50.8727C70.1622 50.415 70.7806 49.9666 71.3716 49.5246C71.9717 49.0906 72.4921 48.6133 72.9981 48.1792C73.2504 47.9557 73.4936 47.7438 73.7316 47.5373C73.9539 47.3163 74.1683 47.1019 74.3749 46.9005C74.7854 46.4939 74.9632 46.3017 75.2783 45.9604C75.5882 45.61 75.2666 45.3472 74.9031 45.6466Z" fill="white"/>
<path fill-rule="evenodd" clip-rule="evenodd" d="M66.9015 49.1303C66.9865 49.873 66.453 50.5477 65.709 50.634C64.9625 50.7189 64.2904 50.1829 64.2054 49.4389C64.1244 48.6936 64.6552 48.0216 65.4005 47.9366C66.1457 47.8516 66.8204 48.3864 66.9015 49.1303Z" fill="white"/>
</svg>
